<svg id="Layer_1" data-name="Layer 1" xmlns="http://www.w3.org/2000/svg" viewBox="0 0 500 500"><defs><style>.cls-1{fill:#fff;}</style></defs><title>scissors</title><path class="cls-1" d="M337.4,323V366.1l-13.09,1v43.23H188.53V366.49l-.17.18a50.69,50.69,0,0,0,5.52-.43c7.2-1.34,9.44,2,8.76,9.5-.57,6.32-.12,12.74-.12,19.66h93.59c14.3,0,14.3,0,14.3-15.3,0-13,0-13,11.51-14.14.4,0,.77-.48,1.93-1.25,0-9.42,0-19.35,0-29.29,0-14.23,0-14.23,13.7-12.3Z"/><path class="cls-1" d="M297,206h26.77c.31,4.83.59,9.21.9,14.16l12.71.74c.2,4.36.39,8.7.62,13.67l13.31,1V323H337.4l.15.15V235.3c-12.2,3.21-15.52-3.32-14.07-13.84H311.05c0,8-.22,15.45.08,22.88.23,5.74-3,5.91-6.71,5.63-3.41-.25-7.81,1.5-7.66-5.27.3-13,.3-25.94.42-38.92Z"/><path class="cls-1" d="M162.08,249.48c-.21-4.43-.41-8.87-.65-14l12.87-.78v-28.5l-12.21-.65V147.22l-.16.18h13.56v57.76l12.8.8v87c-13.51,2.51-13.66,2.38-13.67-11.07V250.57l-12.68-1.23Z"/><path class="cls-1" d="M202.34,147.39h13.34V190.7H229V147.39h13.84l-.16-.18c.15,10.23.38,20.46.44,30.69.08,12.82,0,12.82-11.66,13.92-.41,0-.79.47-2.11,1.3v41.51c-14,2.27-14,2.25-14-11.25V191.5c-3.72,0-6.4.59-8.68-.18-1.83-.63-4.51-2.89-4.53-4.46-.18-13.22.16-26.44.35-39.66Z"/><path class="cls-1" d="M283.07,147.23v43.39L297,191.69V206l.16-.18H270.39c0,8.94-.26,16.41.08,23.85.29,6.33-3.4,5.87-7.24,5.89s-7.42.31-7.15-6c.36-8.48.08-17,.08-25.49,0-12.58,0-12.57,11.37-13.56.4,0,.78-.44,2.06-1.21V160.83c0-14.5,0-14.5,13.65-13.43Z"/><path class="cls-1" d="M188.53,366.49H175.08V337.91l-13-.93V307.9l-.17.19h13.43c0,7.38.28,14.33-.08,21.24-.31,5.79,1.42,8.36,7,7.7,3.19-.37,6.77-.65,6.57,4.93-.3,8.23-.37,16.47-.53,24.71Z"/><path class="cls-1" d="M162.1,307.9H148.69V250.11l13.39-.63-.14-.14q0,29.39,0,58.75Z"/><path class="cls-1" d="M162.09,147.22H148.67V103.84h13.45l-.2-.17q0,21.87,0,43.73Z"/><path class="cls-1" d="M188.38,103.85h14v43.54l.15-.19c-2.28.16-4.58.17-6.84.5-5.51.8-7.8-1.21-7.52-7.66.52-12.1.32-24.24.41-36.37Z"/><path class="cls-1" d="M242.84,147.39V103.85h14l-.18-.18v43.54H242.68Z"/><path class="cls-1" d="M283.05,103.84h13.51v43.39H283.07l.17.17V103.67Z"/><path class="cls-1" d="M162.12,103.84c-.2-4.59-.4-9.18-.61-14.2h26.87v14.21l.16-.18H161.92Z"/><path class="cls-1" d="M256.8,103.85V89.9h26.25v13.94l.19-.17H256.62Z"/><path d="M256.62,103.67h26.62V147.4c-13.65-1.07-13.65-1.07-13.65,13.43v28.48c-1.28.77-1.66,1.18-2.06,1.21-11.37,1-11.37,1-11.37,13.56,0,8.5.28,17-.08,25.49-.27,6.26,3.26,6,7.15,6s7.53.44,7.24-5.89c-.34-7.44-.08-14.91-.08-23.85h26.79c-.12,13-.12,25.95-.42,38.92-.15,6.77,4.25,5,7.66,5.27,3.75.28,6.94.11,6.71-5.63-.3-7.43-.08-14.88-.08-22.88h12.43c-1.45,10.52,1.87,17,14.07,13.84v87.82c-13.7-1.93-13.7-1.93-13.7,12.3,0,9.94,0,19.87,0,29.29-1.16.77-1.53,1.21-1.93,1.25-11.51,1.12-11.51,1.12-11.51,14.14,0,15.3,0,15.3-14.3,15.3H202.52c0-6.92-.45-13.34.12-19.66.68-7.51-1.56-10.84-8.76-9.5a50.69,50.69,0,0,1-5.52.43c.16-8.24.23-16.48.53-24.71.2-5.58-3.38-5.3-6.57-4.93-5.62.66-7.35-1.91-7-7.7.36-6.91.08-13.86.08-21.24H161.93q0-29.37,0-58.75l12.68,1.23v31.32c0,13.45.16,13.58,13.67,11.07V206l-12.8-.8V147.4H161.93q0-21.87,0-43.73h26.62c-.09,12.13.11,24.27-.41,36.37-.28,6.45,2,8.46,7.52,7.66,2.26-.33,4.56-.34,6.84-.5-.19,13.22-.53,26.44-.35,39.66,0,1.57,2.7,3.83,4.53,4.46,2.28.77,5,.18,8.68.18v31.88c0,13.5,0,13.52,14,11.25V193.12c1.32-.83,1.7-1.26,2.11-1.3,11.68-1.1,11.74-1.1,11.66-13.92-.06-10.23-.29-20.46-.44-30.69h13.94Z"/></svg>