<svg id="Layer_1" data-name="Layer 1" xmlns="http://www.w3.org/2000/svg" viewBox="0 0 500 500"><defs><style>.cls-1{fill:#fff;}</style></defs><title>paper</title><path class="cls-1" d="M170.54,319.32H155.83V289.38c-5.09-.71-10.61.2-13.25-2.35-2.31-2.24-1.37-8.37-2-13.71L128,272.64V227h41.91c.21,4.56.44,9.18.68,14.27h14V118.06l14-1c.32-4.9.63-9.54,1-15h27.95c.36-5.48.65-10.12,1-15.5H241.7c.41-5.28.76-9.88,1.15-14.84h28.27V86.19l.18-.17H242.76V97.19c0,45.23-.19,90.46.16,135.69.07,8.05-2.5,10.54-9.33,9.38-1.67-.28-3.35-.47-6-.83V117.9c-7.1,0-13.26.51-19.32-.13-7.24-.76-9.09,2.13-9.05,9.77.28,55.34.15,110.68.15,166v10.14c-2.6.33-4,.62-5.49.67-9.73.36-9.73.35-9.75-10.26q0-11.17,0-22.35c0-13.33,0-13.32-12.1-14.44-.43,0-.83-.47-1.72-1-.32-4.28-.66-8.87-1-14-8.14,0-15.52-.21-22.88.17-1.58.09-4.31,2.29-4.37,3.63-.4,8.61-.21,17.25-.21,26.12l13.72.84c.34,5.16.64,9.58,1,14.39l13.84,1.24v30.8Z"/><path class="cls-1" d="M357.05,335.33v46.06l-13.39.68v46.29H199.16v-46.2l-14.24-.73V351.18l-14.38-.9v-31l-.18.18c1.47-.1,2.94-.28,4.41-.31C185,319,185,319.05,185,329.73c0,6.55,0,13.1,0,19.77,2.51.32,4,.88,5.37.63,8.05-1.52,9.64,2.88,9.09,10.39-.49,6.71-.1,13.5-.1,20.22a42,42,0,0,0,4.36.6c10.22,0,10-1.41,10,10.79v19.69H328.63v-13.9c0-15.07,0-15.07,14.45-17.47V334.78l14.12.69Z"/><path class="cls-1" d="M271.12,86.19h43v16l.17-.2H285.7V241.09c-14.31,3-14.81,2.64-14.81-11.5,0-21.27-.05-42.55,0-63.82q.12-39.89.39-79.75Z"/><path class="cls-1" d="M314.08,102.22h14.81v45.86l14.05.79c.28,5.27.55,10.46.82,15.65l.15-.18H329.26v9.77c0,25.29-.14,50.58.1,75.86.06,5.79-1.34,8.24-7,7.84-4.68-.34-8.43.26-8.37-7.27.33-49.51.25-99,.3-148.52Z"/><path class="cls-1" d="M357,194.83h15v140.5h-15l.15.14V194.68Z"/><path class="cls-1" d="M343.76,164.52H357v30.31l.18-.15c-3.38.25-6.82.95-10.12.53-1.45-.19-3.74-2.68-3.76-4.15-.11-8.9.33-17.81.59-26.72Z"/><path d="M343.91,164.34c-.26,8.91-.7,17.82-.59,26.72,0,1.47,2.31,4,3.76,4.15,3.3.42,6.74-.28,10.12-.53V335.47l-14.12-.69v45.67c-14.45,2.4-14.45,2.4-14.45,17.47v13.9H213.77V392.13c0-12.2.21-10.81-10-10.79a42,42,0,0,1-4.36-.6c0-6.72-.39-13.51.1-20.22.55-7.51-1-11.91-9.09-10.39-1.36.25-2.86-.31-5.37-.63,0-6.67,0-13.22,0-19.77,0-10.68,0-10.69-10.26-10.54-1.47,0-2.94.21-4.41.31V288.7l-13.84-1.24c-.32-4.81-.62-9.23-1-14.39l-13.72-.84c0-8.87-.19-17.51.21-26.12.06-1.34,2.79-3.54,4.37-3.63,7.36-.38,14.74-.17,22.88-.17.38,5.15.72,9.74,1,14,.89.53,1.29,1,1.72,1,12.1,1.12,12.1,1.11,12.1,14.44q0,11.18,0,22.35c0,10.61,0,10.62,9.75,10.26,1.45-.05,2.89-.34,5.49-.67V293.57c0-55.35.13-110.69-.15-166,0-7.64,1.81-10.53,9.05-9.77,6.06.64,12.22.13,19.32.13V241.43c2.62.36,4.3.55,6,.83,6.83,1.16,9.4-1.33,9.33-9.38-.35-45.23-.17-90.46-.16-135.69V86H271.3q-.21,39.87-.39,79.75c-.07,21.27,0,42.55,0,63.82,0,14.14.5,14.55,14.81,11.5V102h28.55c-.05,49.5,0,99-.3,148.52-.06,7.53,3.69,6.93,8.37,7.27,5.7.4,7.1-2.05,7-7.84-.24-25.28-.1-50.57-.1-75.86v-9.77Z"/></svg>