<svg id="Layer_1" data-name="Layer 1" xmlns="http://www.w3.org/2000/svg" viewBox="0 0 500 500"><defs><style>.cls-1{fill:#fff;}</style></defs><title>rock</title><path class="cls-1" d="M164.67,344H145.28V307l-19-1.43V268.88l-17.8-1.08V193l16.94-.92c.39-5.81.77-11.45,1.21-17.86l18.18-1.32V117.3l19.88-1-.22-.2V249.05h-20V194c-18-2.71-18-2.71-18,13.21v60c3.55.28,5.52.81,7.38.53,9.42-1.43,12.67,2.45,11.81,11.81-.76,8.27-.16,16.67-.16,25.26l18.93,1.72v37.62Z"/><path class="cls-1" d="M353.29,344v56.89H164.67V344l-.25.22c2.26-.17,4.54-.18,6.76-.54,9.52-1.5,13.76,1.69,12.61,12-.9,8.19-.18,16.56-.18,24.89H334.18c0-7,0-13.1,0-19.22,0-18.77,0-18.77,19.34-17.16Z"/><path class="cls-1" d="M257.83,116.3h19.43c.3-5.51.59-10.83.92-17H315.3c.34,5.34.69,10.68,1.08,16.79l17.74,1.23c.41,6.2.78,11.87,1.18,17.93l18,.94v19.21l.22-.27h-18.2c0,9.51,0,17.52,0,25.54,0,12.75,0,12.77-13.07,12.24-1.89-.08-3.77-.51-6.9-1v-74.8c-10.25,0-19.25.45-28.19-.14-7.58-.51-9.33,2.57-9.12,9.57.46,15.43.14,30.87.14,46-18.74,4-19.82,3.2-19.87-13.7,0-14.23-.15-28.47-.24-42.71Z"/><path class="cls-1" d="M353.3,155.35h19.15v17.42l19.11,1.38V287.5H372.81l.22.25q-.37-50.58-.74-101.15c0-3.8,0-7.6,0-11.71l-18.77-1.63V155.08Z"/><path class="cls-1" d="M201.41,116.31h19c.33-5.74.63-11,1-17.16h37.56c-.38,6-.74,11.56-1.11,17.15l.24-.17-36.7,1.77c0,16-.54,30.87.2,45.69.45,8.91-2.85,11.75-11.09,10.54-2.76-.41-5.56-.62-8.86-1v-57Z"/><path class="cls-1" d="M372.81,287.5V344H353.29l.23.23V286.7L373,287.75Z"/><path class="cls-1" d="M164.65,116.31V99.18h36.76v17.13l.21-.2H164.43Z"/><path d="M164.43,116.11h37.19v57.05c3.3.35,6.1.56,8.86,1,8.24,1.21,11.54-1.63,11.09-10.54-.74-14.82-.2-29.71-.2-45.69l36.7-1.77c.09,14.24.21,28.48.24,42.71.05,16.9,1.13,17.73,19.87,13.7,0-15.13.32-30.57-.14-46-.21-7,1.54-10.08,9.12-9.57,8.94.59,17.94.14,28.19.14v74.8c3.13.44,5,.87,6.9,1,13,.53,13,.51,13.07-12.24,0-8,0-16,0-25.54h18.2v18.18l18.77,1.63c0,4.11,0,7.91,0,11.71q.36,50.58.74,101.15l-19.51-1.05v57.49c-19.34-1.61-19.34-1.61-19.34,17.16,0,6.12,0,12.23,0,19.22H183.61c0-8.33-.72-16.7.18-24.89,1.15-10.34-3.09-13.53-12.61-12-2.22.36-4.5.37-6.76.54V306.57l-18.93-1.72c0-8.59-.6-17,.16-25.26.86-9.36-2.39-13.24-11.81-11.81-1.86.28-3.83-.25-7.38-.53v-60c0-15.92,0-15.92,18-13.21v55h20Z"/></svg>